<svg xmlns="http://www.w3.org/2000/svg" width="120.321" height="62.283" viewBox="0 0 120.321 62.283">
  <g id="Group_1" data-name="Group 1" transform="translate(-569.068 -1250.016)">
    <path id="Path_2" data-name="Path 2" d="M188.386,104.118c-2.706,2.009-5.355,4.014-8.052,5.951-3.363,2.416-6.87,4.644-10.122,7.2a17.5,17.5,0,0,0-6.588,10.559c-.15.756-.239,1.523-.367,2.365h33.855v1.353H158.068c.11-1.316.159-2.642.341-3.95a23.043,23.043,0,0,1,8.656-14.945c3.577-2.945,7.33-5.677,11-8.507a30.263,30.263,0,0,0,5.587-5.415A17.736,17.736,0,0,0,187.519,88.1a26.2,26.2,0,0,0-1.893-11.051,9.413,9.413,0,0,0-8.321-6.064,17.893,17.893,0,0,0-14.587,5.008c-.153.144-.3.3-.441.453-.125.138-.24.286-.418.5l-1.182-.916a17.547,17.547,0,0,1,4.879-3.888c7.8-4,15.532-3.724,22.974.834a14.7,14.7,0,0,1,6.9,11.219A22.908,22.908,0,0,1,194.2,95.8,23.316,23.316,0,0,1,188.386,104.118Z" transform="translate(411 1180.724)" fill="#fff"/>
    <path id="Path_3" data-name="Path 3" d="M476.007,107.065c4.48,1.034,7.788-.923,10.6-4.044a30.5,30.5,0,0,0,2.072-2.992.788.788,0,0,1,.5-.348c2.926-.021,5.852-.015,8.916-.015-.334,1.475-.579,2.9-.98,4.276A37.908,37.908,0,0,1,479,127.188a30.914,30.914,0,0,1-14.717,4.111c-.117,0-.234,0-.351-.011-.019,0-.036-.027-.089-.068v-1.26c8.609-.845,16.007-3.984,21.124-11.351a30.03,30.03,0,0,0,4.847-17.245c-.5.651-.931,1.24-1.385,1.816a13.884,13.884,0,0,1-9.042,5.562c-6.525.944-12.678-1.671-16.021-8.1a23.357,23.357,0,0,1-2.342-10.174,25.463,25.463,0,0,1,1.936-11.391c2.7-6.081,7.412-9.322,14-9.933a23.718,23.718,0,0,1,10.642,1.27,13.827,13.827,0,0,1,7.444,6.407c.064.114.1.242.181.421H488.5c-.277-.68-.532-1.381-.843-2.055a7.611,7.611,0,0,0-6.029-4.6,12.282,12.282,0,0,0-6.028.464c-2.8.964-4.186,3.155-5.029,5.807a35.515,35.515,0,0,0-1.547,9.815,54.417,54.417,0,0,0,.828,12.872,9.591,9.591,0,0,0,4.93,7.039A12.739,12.739,0,0,0,476.007,107.065Z" transform="translate(150.662 1181)" fill="#fff"/>
    <path id="Path_4" data-name="Path 4" d="M565.586,151.981c1.41,3.322,2.8,6.6,4.249,10.02.157-.328.266-.536.357-.752q2.207-5.24,4.418-10.479a3.414,3.414,0,0,1,.517-.677,3.068,3.068,0,0,1,.535.656c1.483,3.463,2.947,6.935,4.417,10.4.1.233.21.46.365.8.133-.254.234-.418.309-.594q2.264-5.33,4.522-10.664c.16-.379.295-.776.913-.523l-6.959,16.411-.286.009-5.174-12.135c-.147.316-.246.513-.332.716q-2.29,5.4-4.585,10.79a2.78,2.78,0,0,1-.434.56,3.824,3.824,0,0,1-.36-.559q-3.2-7.528-6.38-15.061c-.1-.229-.176-.466-.305-.814,1.1,0,2.1-.02,3.1.019.171.007.395.231.487.41C565.19,150.97,565.365,151.457,565.586,151.981Z" transform="translate(64.41 1111.336)" fill="#10add9"/>
    <path id="Path_5" data-name="Path 5" d="M229.163,145.957l3.547-3.555v17l-8.541-8.542Z" transform="translate(354.194 1117.934)" fill="#10add9"/>
    <path id="Path_6" data-name="Path 6" d="M940.391,114.516v-1.232h3.191v5.175h3.925a2.011,2.011,0,0,1,.558.012,1.717,1.717,0,0,1,.437.3c-.146.1-.291.3-.44.3-1.1.026-2.2.015-3.3.015h-1.09c-.024.233-.06.412-.06.592q0,6.222,0,12.444a2.887,2.887,0,0,0,.05.629,1.2,1.2,0,0,0,1.625.988c.383-.1.744-.3,1.13-.374a.759.759,0,0,1,.569.257,4.99,4.99,0,0,1-5.363.1,2.789,2.789,0,0,1-1.218-2.682q-.006-5.519,0-11.038c0-.274,0-.549,0-.9a8.878,8.878,0,0,1-1.394-.016c-.411-.069-1.173.33-1.169-.288,0-.685.778-.228,1.2-.314a7.309,7.309,0,0,1,1.359-.018Z" transform="translate(-259.113 1142.957)" fill="#10add9"/>
    <path id="Path_7" data-name="Path 7" d="M748.634,144.291c3.382.848,5.566,3.61,5.33,6.759H743.591c0,.98-.048,1.886.012,2.785a21.845,21.845,0,0,0,.394,3.548c.588,2.5,2.236,3.445,4.739,2.876a6.8,6.8,0,0,0,4.067-2.8c.205-.283.384-.586.59-.9.49.074.457.315.268.674a6.871,6.871,0,0,1-10.268,2.355c-4.593-3.491-4.374-11.145.425-14.3a6.428,6.428,0,0,1,4.816-1m-3.993,1.857a9.576,9.576,0,0,0-1.022,4.288h7.165a8.672,8.672,0,0,0-.937-4.354,2.7,2.7,0,0,0-1.5-1.144A3.278,3.278,0,0,0,744.641,146.148Z" transform="translate(-89.167 1116.405)" fill="#10add9"/>
    <path id="Path_8" data-name="Path 8" d="M860.454,144.247A5.938,5.938,0,0,1,863.7,146.3c-.277.533-.509.287-.787.012a5.1,5.1,0,0,0-5.168-1.36,2.751,2.751,0,0,0-2.138,1.84,2.306,2.306,0,0,0,1.732,3.037c1.094.335,2.238.522,3.314.9a10.526,10.526,0,0,1,2.751,1.316c1.945,1.437,1.611,5.079.22,6.71a6.387,6.387,0,0,1-9.45.108c-.244-.277-.593-.575.079-.855a5.768,5.768,0,0,0,7.571,1.444,3.01,3.01,0,0,0,1.328-3.173,2.7,2.7,0,0,0-2.126-2.186c-1.339-.418-2.707-.749-4.03-1.209-2.121-.738-3.008-1.945-3-3.9a4.525,4.525,0,0,1,3.085-4.474A5.9,5.9,0,0,1,860.454,144.247Z" transform="translate(-186.951 1116.465)" fill="#10add9"/>
    <path id="Path_9" data-name="Path 9" d="M755.247,327.639c-.584.146-.847-.067-.991-.6-.255-.946-.58-1.873-.879-2.806-.344-1.077-.345-1.076-1.574-.96v4.362l-.79.043v-9.848c.82,0,1.632-.029,2.441.01a1.4,1.4,0,0,1,1.283.95,4.6,4.6,0,0,1,.022,3.357,4.864,4.864,0,0,1-.869,1.086c.442,1.378.925,2.882,1.357,4.407m-1.891-9.069h-1.545V322.5c.832-.106,1.788.33,2.232-.75A2.8,2.8,0,0,0,753.356,318.57Z" transform="translate(-98.563 967.185)" fill="#10add9"/>
    <path id="Path_10" data-name="Path 10" d="M798.6,417.875v2.437h-.778V410.5c.789,0,1.553-.03,2.312.008a1.507,1.507,0,0,1,1.55,1.36,9.636,9.636,0,0,1,.005,2.632c-.075.489-.542.917-.943,1.545l1.409,4.239c-.621.229-.907.033-1.065-.544-.265-.968-.595-1.918-.9-2.874-.344-1.068-.346-1.067-1.587-.864v1.871m.007-6.486V415.2a4.978,4.978,0,0,0,1.119-.017c.36-.09.854-.228,1-.5a3.024,3.024,0,0,0,0-2.961C800.276,410.922,799.406,411.246,798.609,411.389Z" transform="translate(-138.791 887.544)" fill="#10add9"/>
    <path id="Path_11" data-name="Path 11" d="M834.951,417.955c-.013-2.137-.075-4.218,0-6.295a1.93,1.93,0,0,1,2.275-1.987,1.741,1.741,0,0,1,1.752,1.608c.082,2.282.087,4.572,0,6.854a1.773,1.773,0,0,1-1.9,1.61c-1.122.036-1.749-.479-2.122-1.79m2.854-7.27c-1.068-.612-1.957-.215-2.023,1.006-.1,1.8-.088,3.6-.087,5.4a2.277,2.277,0,0,0,.258,1.212,1.827,1.827,0,0,0,1.023.67.918.918,0,0,0,1.093-.668,2.563,2.563,0,0,0,.2-.813c.018-1.849.034-3.7-.005-5.547A3.706,3.706,0,0,0,837.805,410.685Z" transform="translate(-170.667 888.257)" fill="#10add9"/>
    <path id="Path_12" data-name="Path 12" d="M876.7,418.97a8.291,8.291,0,0,0,.118-1.023c.009-2.454,0-4.908,0-7.406h.828v2.552c0,1.708.01,3.417,0,5.125a2.056,2.056,0,1,1-4.1.058c-.023-2.223-.007-4.447-.007-6.67v-1.074h.81v2.041c0,1.849-.012,3.7.011,5.547a2.343,2.343,0,0,0,.237,1.074C875.058,420.012,876.09,419.911,876.7,418.97Z" transform="translate(-203.861 887.509)" fill="#10add9"/>
    <path id="Path_13" data-name="Path 13" d="M759.833,416.837a10.28,10.28,0,0,0,.181,1.312,1.041,1.041,0,0,0,1.064.845,1,1,0,0,0,1.143-.819c.132-.987.14-1.99.2-3.039l-1.272-.079v-.615h1.96a35.247,35.247,0,0,1-.031,3.731,1.811,1.811,0,0,1-2.077,1.563,1.846,1.846,0,0,1-1.868-1.742c-.115-1.137-.143-2.287-.149-3.431a26.1,26.1,0,0,1,.13-3.01,1.917,1.917,0,0,1,2.293-1.882,1.974,1.974,0,0,1,1.735,2.316h-.719a8.265,8.265,0,0,0-.208-.85,1.033,1.033,0,0,0-1.069-.741,1,1,0,0,0-1.078.718,5.52,5.52,0,0,0-.228,1.374C759.816,413.915,759.833,415.343,759.833,416.837Z" transform="translate(-105.417 888.263)" fill="#10add9"/>
    <path id="Path_14" data-name="Path 14" d="M824.745,322.356c.388,1.791.769,3.523,1.161,5.309h-.87c-.141-.69-.315-1.41-.429-2.139-.063-.407-.23-.53-.639-.535-1.736-.022-1.735-.036-2.09,1.651-.072.342-.149.682-.227,1.042h-.875l2.188-9.823h.787c.327,1.474.657,2.954.994,4.494m-1.8-1.125-.569,2.974h1.954l-.891-4.355-.185.008C823.163,320.277,823.07,320.7,822.948,321.231Z" transform="translate(-158.516 967.148)" fill="#10add9"/>
    <path id="Path_15" data-name="Path 15" d="M915.3,415.516c-.739.121-1.427.222-2.19.334v4.219h-.827v-9.781c2.643-.234,3.319-.012,3.771,1a3.812,3.812,0,0,1-.754,4.226m-.376-4.348-1.809-.266v4.077a4.77,4.77,0,0,0,1.191-.022c.348-.094.834-.3.933-.579A3.183,3.183,0,0,0,914.922,411.168Z" transform="translate(-237.153 887.792)" fill="#10add9"/>
    <path id="Path_16" data-name="Path 16" d="M789.169,318.883v-1.022H792.6v.706h-2.561v3.806h2.194v.727h-2.188v3.844h2.572v.729h-3.444Z" transform="translate(-131.354 967.149)" fill="#10add9"/>
    <path id="Path_17" data-name="Path 17" d="M927.3,320.455c.214-.8.45-1.534.609-2.286.127-.6.408-.846,1.109-.626-.964,3.162-2.275,6.28-1.592,9.778l-1.06.057c.634-3.48-.6-6.611-1.617-9.776.852-.239.853-.239,1.055.487.331,1.191.661,2.382,1.05,3.786C927.041,321.3,927.167,320.906,927.3,320.455Z" transform="translate(-247.872 967.493)" fill="#10add9"/>
    <path id="Path_18" data-name="Path 18" d="M890.782,322.215V318.56h-1.628v-.728H893.2c.012.188.026.407.045.694h-1.624v9.126l-.841.041Z" transform="translate(-217.279 967.174)" fill="#10add9"/>
    <path id="Path_19" data-name="Path 19" d="M867.661,326.676c.227.008.389.016.587.025l.031.673h-3.4v-9.808l.76-.041v9.151Z" transform="translate(-196.419 967.437)" fill="#10add9"/>
  </g>
</svg>
