<svg xmlns="http://www.w3.org/2000/svg" width="109.72" height="56.795" viewBox="0 0 109.72 56.795">
    <g data-name="Group 1">
        <path data-name="Path 2" d="M185.715 101.053c-2.468 1.832-4.884 3.66-7.343 5.427-3.066 2.2-6.264 4.235-9.23 6.564a15.962 15.962 0 0 0-6.008 9.629c-.137.689-.217 1.389-.335 2.157h30.872v1.233h-35.6c.1-1.2.145-2.409.311-3.6a21.013 21.013 0 0 1 7.893-13.628c3.262-2.686 6.684-5.176 10.033-7.757a27.6 27.6 0 0 0 5.094-4.938 16.173 16.173 0 0 0 3.525-9.692A23.9 23.9 0 0 0 183.2 76.37a8.583 8.583 0 0 0-7.588-5.529 16.316 16.316 0 0 0-13.3 4.567c-.14.132-.273.271-.4.413-.114.126-.219.261-.381.456l-1.078-.836A16 16 0 0 1 164.9 71.9a20.219 20.219 0 0 1 20.95.761 13.4 13.4 0 0 1 6.3 10.231 20.89 20.89 0 0 1-1.123 10.581 21.262 21.262 0 0 1-5.312 7.58z" transform="translate(-158.068 -69.296)" style="fill:#1a232a"/>
        <path data-name="Path 3" d="M474.686 103.712c4.085.943 7.1-.841 9.665-3.688a27.815 27.815 0 0 0 1.889-2.724.719.719 0 0 1 .458-.318c2.668-.019 5.337-.014 8.13-.014-.3 1.345-.528 2.643-.893 3.9a34.568 34.568 0 0 1-16.516 21.2A28.191 28.191 0 0 1 464 125.811c-.107 0-.214 0-.32-.01-.017 0-.033-.024-.081-.062v-1.149c7.851-.771 14.6-3.633 19.262-10.351a27.384 27.384 0 0 0 4.42-15.725c-.452.593-.849 1.131-1.263 1.656a12.66 12.66 0 0 1-8.245 5.072 13.587 13.587 0 0 1-14.609-7.389 21.3 21.3 0 0 1-2.136-9.277 23.22 23.22 0 0 1 1.765-10.387c2.466-5.545 6.759-8.5 12.767-9.058a21.628 21.628 0 0 1 9.7 1.159 12.609 12.609 0 0 1 6.788 5.843c.058.1.1.22.165.384h-6.134c-.253-.62-.485-1.259-.769-1.874a6.941 6.941 0 0 0-5.5-4.2 11.2 11.2 0 0 0-5.5.423c-2.549.879-3.817 2.877-4.586 5.3a32.386 32.386 0 0 0-1.411 8.951 49.621 49.621 0 0 0 .755 11.737 8.746 8.746 0 0 0 4.5 6.419 11.623 11.623 0 0 0 1.118.439z" transform="translate(-422.159 -69.016)" style="fill:#1a232a"/>
        <path data-name="Path 4" d="M565.215 151.813c1.286 3.029 2.551 6.015 3.875 9.137.143-.3.243-.489.326-.686q2.012-4.779 4.029-9.556a3.112 3.112 0 0 1 .472-.617 2.8 2.8 0 0 1 .488.6c1.352 3.158 2.687 6.324 4.027 9.487.09.212.191.419.332.726.121-.232.214-.381.282-.541q2.065-4.861 4.124-9.724c.146-.345.269-.707.832-.477l-6.346 14.965-.261.008-4.718-11.065c-.134.288-.224.468-.3.653q-2.088 4.92-4.181 9.839a2.534 2.534 0 0 1-.4.51 3.486 3.486 0 0 1-.328-.51q-2.915-6.864-5.818-13.734c-.088-.209-.16-.425-.279-.742 1.006 0 1.916-.018 2.823.017.156.006.36.211.444.374.216.414.375.859.577 1.336z" transform="translate(-509.656 -139.684)" style="fill:#10add9"/>
        <path data-name="Path 5" d="m228.723 145.643 3.235-3.241v15.506l-7.788-7.789z" transform="translate(-215.693 -132.991)" style="fill:#10add9"/>
        <path data-name="Path 6" d="M940.165 114.408v-1.124h2.91V118h3.579a1.834 1.834 0 0 1 .509.011 1.566 1.566 0 0 1 .4.27c-.133.1-.265.271-.4.274-1 .024-2.009.014-3.013.014h-.994c-.022.212-.055.376-.055.54v11.347a2.633 2.633 0 0 0 .045.573 1.1 1.1 0 0 0 1.481.9c.349-.093.679-.27 1.031-.341a.692.692 0 0 1 .519.235 4.55 4.55 0 0 1-4.891.095 2.544 2.544 0 0 1-1.11-2.446q-.006-5.033 0-10.065v-.823a8.094 8.094 0 0 1-1.271-.015c-.375-.063-1.07.3-1.066-.263 0-.625.71-.208 1.093-.286a6.665 6.665 0 0 1 1.239-.016z" transform="translate(-837.843 -107.607)" style="fill:#10add9"/>
        <path data-name="Path 7" d="M747.88 144.282a6 6 0 0 1 4.86 6.163h-9.459c0 .894-.044 1.72.011 2.54a19.913 19.913 0 0 0 .359 3.236c.536 2.276 2.039 3.142 4.322 2.623a6.2 6.2 0 0 0 3.709-2.557c.187-.258.35-.534.538-.822.446.068.417.287.244.615a6.265 6.265 0 0 1-9.364 2.148c-4.188-3.184-3.989-10.163.388-13.036a5.861 5.861 0 0 1 4.392-.908m-3.641 1.693a8.731 8.731 0 0 0-.932 3.91h6.534a7.908 7.908 0 0 0-.854-3.971 2.467 2.467 0 0 0-1.364-1.043 2.989 2.989 0 0 0-3.384 1.102z" transform="translate(-665.446 -134.542)" style="fill:#10add9"/>
        <path data-name="Path 8" d="M859.873 144.235a5.415 5.415 0 0 1 2.961 1.874c-.253.486-.464.262-.718.011a4.648 4.648 0 0 0-4.713-1.24 2.509 2.509 0 0 0-1.95 1.678 2.1 2.1 0 0 0 1.58 2.769c1 .306 2.04.476 3.022.824a9.6 9.6 0 0 1 2.509 1.2c1.774 1.31 1.47 4.631.2 6.119a5.825 5.825 0 0 1-8.617.1c-.223-.253-.54-.524.072-.779a5.259 5.259 0 0 0 6.9 1.317 2.745 2.745 0 0 0 1.211-2.893 2.462 2.462 0 0 0-1.939-1.993c-1.221-.381-2.468-.683-3.675-1.1-1.934-.673-2.743-1.773-2.732-3.557a4.126 4.126 0 0 1 2.813-4.08 5.379 5.379 0 0 1 3.076-.25z" transform="translate(-764.64 -134.482)" style="fill:#10add9"/>
        <path data-name="Path 9" d="M754.874 326.774c-.533.133-.772-.061-.9-.547-.232-.862-.529-1.708-.8-2.559-.314-.982-.315-.982-1.435-.875v3.977l-.721.039v-8.98c.748 0 1.488-.027 2.226.009a1.277 1.277 0 0 1 1.17.866 4.194 4.194 0 0 1 .02 3.062 4.437 4.437 0 0 1-.792.991c.4 1.257.843 2.628 1.237 4.018m-1.724-8.27h-1.408v3.586c.759-.1 1.631.3 2.035-.684a2.554 2.554 0 0 0-.632-2.907z" transform="translate(-674.978 -285.914)" style="fill:#10add9"/>
        <path data-name="Path 10" d="M798.533 417.225v2.223h-.71V410.5c.72 0 1.416-.027 2.109.007a1.374 1.374 0 0 1 1.414 1.24 8.785 8.785 0 0 1 0 2.4c-.068.446-.494.836-.86 1.409l1.285 3.865c-.567.209-.828.03-.972-.5-.242-.882-.542-1.749-.823-2.621-.313-.974-.316-.973-1.448-.788v1.706m.007-5.914v3.473a4.538 4.538 0 0 0 1.02-.016c.328-.082.779-.207.909-.455a2.758 2.758 0 0 0 0-2.7c-.404-.722-1.198-.426-1.924-.296z" transform="translate(-715.786 -366.703)" style="fill:#10add9"/>
        <path data-name="Path 11" d="M834.948 417.224c-.012-1.949-.068-3.847 0-5.74a1.76 1.76 0 0 1 2.074-1.812 1.587 1.587 0 0 1 1.6 1.467 84.58 84.58 0 0 1 0 6.25 1.617 1.617 0 0 1-1.733 1.468c-1.023.032-1.6-.436-1.935-1.632m2.6-6.629c-.973-.558-1.785-.2-1.845.918-.088 1.639-.08 3.283-.08 4.926a2.076 2.076 0 0 0 .235 1.106 1.666 1.666 0 0 0 .933.611.837.837 0 0 0 1-.609 2.335 2.335 0 0 0 .178-.742c.017-1.686.031-3.373 0-5.058a3.38 3.38 0 0 0-.425-1.153z" transform="translate(-748.121 -365.98)" style="fill:#10add9"/>
        <path data-name="Path 12" d="M876.423 418.226a7.534 7.534 0 0 0 .107-.933c.008-2.238 0-4.476 0-6.753h.755v2.327c0 1.558.01 3.116 0 4.674a1.875 1.875 0 1 1-3.734.053c-.021-2.027-.006-4.055-.006-6.082v-.98h.739v1.861c0 1.686-.011 3.372.01 5.058a2.135 2.135 0 0 0 .216.98c.415.746 1.356.654 1.913-.205z" transform="translate(-781.794 -366.738)" style="fill:#10add9"/>
        <path data-name="Path 13" d="M759.759 416.2a9.381 9.381 0 0 0 .165 1.2.95.95 0 0 0 .97.771.909.909 0 0 0 1.042-.747c.12-.9.128-1.815.186-2.771l-1.16-.072v-.561h1.788a32.139 32.139 0 0 1-.028 3.4 1.651 1.651 0 0 1-1.894 1.425 1.683 1.683 0 0 1-1.7-1.589 34.352 34.352 0 0 1-.136-3.128 23.794 23.794 0 0 1 .119-2.745 1.748 1.748 0 0 1 2.091-1.716 1.8 1.8 0 0 1 1.582 2.112h-.656a7.552 7.552 0 0 0-.189-.775.942.942 0 0 0-.975-.675.912.912 0 0 0-.983.654 5.035 5.035 0 0 0-.208 1.253c-.03 1.304-.014 2.606-.014 3.964z" transform="translate(-681.931 -365.974)" style="fill:#10add9"/>
        <path data-name="Path 14" d="M824.4 321.96c.354 1.633.7 3.213 1.059 4.841h-.793c-.129-.629-.287-1.285-.391-1.95-.058-.371-.21-.483-.583-.488-1.583-.02-1.582-.033-1.906 1.506-.066.311-.135.622-.207.951h-.8l2-8.958h.718c.3 1.344.6 2.694.906 4.1m-1.639-1.026-.519 2.712h1.782l-.812-3.971-.169.007c-.094.38-.179.762-.29 1.25z" transform="translate(-735.796 -285.952)" style="fill:#10add9"/>
        <path data-name="Path 15" d="M915.032 415.048c-.673.111-1.3.2-2 .3v3.852h-.754v-8.92c2.41-.213 3.027-.011 3.439.913a3.476 3.476 0 0 1-.687 3.854m-.343-3.965-1.65-.243v3.718a4.348 4.348 0 0 0 1.086-.02c.317-.086.761-.277.851-.528a2.9 2.9 0 0 0-.285-2.926z" transform="translate(-815.566 -366.451)" style="fill:#10add9"/>
        <path data-name="Path 16" d="M789.169 318.793v-.932h3.125v.644h-2.335v3.471h2v.663h-2v3.506h2.345v.665h-3.14z" transform="translate(-708.242 -285.951)" style="fill:#10add9"/>
        <path data-name="Path 17" d="M927.079 320.191c.2-.729.411-1.4.555-2.085.116-.548.372-.771 1.011-.571-.879 2.883-2.074 5.727-1.452 8.916l-.966.052c.578-3.173-.549-6.028-1.475-8.915.777-.218.778-.218.962.444.3 1.086.6 2.172.957 3.452.168-.521.283-.884.408-1.293z" transform="translate(-826.439 -285.601)" style="fill:#10add9"/>
        <path data-name="Path 18" d="M890.638 321.829V318.5h-1.484v-.664h3.691l.041.633h-1.481v8.322l-.767.038z" transform="translate(-795.405 -285.925)" style="fill:#10add9"/>
        <path data-name="Path 19" d="M867.416 325.87c.207.007.355.014.536.023l.028.614h-3.1v-8.944l.693-.038v8.345z" transform="translate(-774.245 -285.658)" style="fill:#10add9"/>
    </g>
</svg>
