<svg xmlns="http://www.w3.org/2000/svg" width="214" height="116" viewBox="0 0 362.053 187.413">
    <g data-name="Group 1">
        <path data-name="Path 2" d="M249.3 173.992c-8.143 6.045-16.115 12.077-24.23 17.908-10.119 7.27-20.671 13.975-30.456 21.661a52.673 52.673 0 0 0-19.824 31.773c-.451 2.274-.718 4.584-1.106 7.116H275.55v4.07H158.068c.331-3.961.479-7.95 1.025-11.885 2.569-18.508 11.861-33.293 26.046-44.971 10.764-8.862 22.057-17.081 33.105-25.6a91.059 91.059 0 0 0 16.811-16.293 53.368 53.368 0 0 0 11.633-31.98c.28-11.448-1.173-22.591-5.7-33.252-4.729-11.144-13.146-17.1-25.039-18.246-16.892-1.632-31.533 3.436-43.894 15.07-.461.435-.9.895-1.327 1.364-.377.416-.722.86-1.258 1.506l-3.556-2.758A52.8 52.8 0 0 1 180.6 77.78c23.472-12.037 46.735-11.2 69.13 2.511 12.359 7.57 18.944 19.433 20.775 33.759 1.521 11.894.8 23.645-3.7 34.915a70.16 70.16 0 0 1-17.505 25.027z" transform="translate(-158.068 -69.202)" style="fill:#fff"/>
        <path data-name="Path 3" d="M506.147 183.506c13.48 3.11 23.435-2.777 31.892-12.169 2.422-2.69 4.134-6.014 6.234-9a2.372 2.372 0 0 1 1.511-1.048c8.8-.064 17.61-.046 26.828-.046-1 4.44-1.741 8.722-2.948 12.868-8.887 30.526-26.76 54.144-54.5 69.949a93.025 93.025 0 0 1-44.286 12.371c-.352.009-.705-.011-1.057-.032-.057 0-.11-.08-.269-.205V252.4c25.906-2.544 48.165-11.988 63.562-34.156 10.932-15.739 15.139-36.576 14.586-51.89-1.491 1.958-2.8 3.732-4.167 5.463-7.021 8.906-15.842 15.093-27.208 16.736-19.635 2.839-38.149-5.029-48.208-24.381-4.982-9.585-6.69-19.984-7.048-30.613-.4-11.791.963-23.343 5.824-34.276 8.137-18.3 22.3-28.051 42.128-29.889a71.367 71.367 0 0 1 32.022 3.823 41.607 41.607 0 0 1 22.4 19.28c.193.344.315.727.544 1.266h-20.238c-.834-2.046-1.6-4.155-2.538-6.185-3.6-7.8-9.589-12.485-18.141-13.845a36.957 36.957 0 0 0-18.139 1.4c-8.412 2.9-12.6 9.494-15.134 17.474a106.866 106.866 0 0 0-4.656 29.535c-.371 12.982-.211 25.933 2.49 38.731 1.943 9.205 6.238 16.69 14.836 21.181a38.343 38.343 0 0 0 3.68 1.452z" transform="translate(-332.82 -69.017)" style="fill:#fff"/>
        <path data-name="Path 4" d="M574.052 155.8c4.243 10 8.419 19.847 12.786 30.151.471-.988.8-1.614 1.074-2.263q6.64-15.769 13.295-31.532a10.261 10.261 0 0 1 1.557-2.037 9.237 9.237 0 0 1 1.609 1.975c4.463 10.421 8.867 20.866 13.29 31.3.3.7.632 1.383 1.1 2.395.4-.764.705-1.258.93-1.787q6.814-16.039 13.608-32.087c.482-1.14.887-2.334 2.747-1.573L615.1 199.727l-.861.026-15.566-36.513c-.443.952-.741 1.544-1 2.153q-6.891 16.236-13.8 32.467a8.353 8.353 0 0 1-1.307 1.685 11.522 11.522 0 0 1-1.083-1.683q-9.62-22.651-19.2-45.319c-.292-.69-.529-1.4-.919-2.449 3.32 0 6.322-.06 9.316.058.516.02 1.188.7 1.466 1.235.715 1.372 1.24 2.839 1.906 4.413z" transform="translate(-390.718 -115.779)" style="fill:#10add9"/>
        <path data-name="Path 5" d="m239.195 153.1 10.673-10.7v51.166l-25.7-25.7 15.027-14.766z" transform="translate(-196.199 -111.35)" style="fill:#10add9"/>
        <path data-name="Path 6" d="M945.527 116.992v-3.708h9.6v15.573h11.813a6.051 6.051 0 0 1 1.68.036 5.165 5.165 0 0 1 1.316.89c-.44.316-.876.894-1.324.9-3.313.079-6.628.045-9.942.047h-3.28c-.074.7-.18 1.241-.18 1.782q-.015 18.722 0 37.444a8.7 8.7 0 0 0 .15 1.891c.571 2.536 2.373 3.646 4.889 2.974 1.153-.308 2.24-.89 3.4-1.126a2.285 2.285 0 0 1 1.713.774c-5.434 3.259-10.847 3.332-16.138.312-3.021-1.724-3.661-4.834-3.664-8.07q-.019-16.607-.01-33.213v-2.716a26.709 26.709 0 0 1-4.195-.048c-1.236-.208-3.529.994-3.517-.867.014-2.062 2.342-.687 3.605-.945a22 22 0 0 1 4.088-.054z" transform="translate(-607.883 -94.553)" style="fill:#10add9"/>
        <path data-name="Path 7" d="M765.821 144.514c10.177 2.552 16.749 10.862 16.039 20.337h-31.213c0 2.948-.144 5.675.035 8.381a65.72 65.72 0 0 0 1.185 10.677c1.769 7.509 6.727 10.367 14.262 8.654a20.473 20.473 0 0 0 12.238-8.438c.618-.851 1.155-1.762 1.774-2.714 1.473.224 1.375.947.806 2.029a20.675 20.675 0 0 1-30.9 7.087c-13.82-10.5-13.161-33.536 1.279-43.016a19.342 19.342 0 0 1 14.492-3m-12.011 5.589c-2.287 3.96-2.765 8.34-3.074 12.9h21.56c-.136-4.64-.447-9.169-2.818-13.1a8.14 8.14 0 0 0-4.5-3.442c-4.161-1.029-8.148-.391-11.168 3.642z" transform="translate(-493.806 -112.376)" style="fill:#10add9"/>
        <path data-name="Path 8" d="M873.695 144.519a17.87 17.87 0 0 1 9.77 6.183c-.833 1.6-1.531.863-2.369.035a15.338 15.338 0 0 0-15.552-4.092c-2.959.774-5.481 2.37-6.434 5.536-1.274 4.23.71 7.76 5.212 9.138 3.294 1.008 6.733 1.572 9.971 2.719a31.678 31.678 0 0 1 8.278 3.962c5.854 4.323 4.849 15.282.662 20.191-7.2 8.441-21.1 8.65-28.435.324-.735-.834-1.783-1.73.238-2.571a16.064 16.064 0 0 0 10.835 6.587c4.232.655 8.274.217 11.946-2.241 3.453-2.312 4.57-5.644 3.995-9.548-.535-3.625-3.108-5.551-6.4-6.578-4.028-1.258-8.144-2.253-12.126-3.639-6.381-2.22-9.051-5.852-9.016-11.738.039-6.452 3.409-11.363 9.282-13.463a17.749 17.749 0 0 1 10.143-.805z" transform="translate(-559.444 -112.336)" style="fill:#10add9"/>
        <path data-name="Path 9" d="M763.753 347.369c-1.758.44-2.549-.2-2.982-1.806-.767-2.846-1.746-5.634-2.645-8.445-1.036-3.24-1.039-3.239-4.736-2.888v13.125l-2.378.129v-29.633c2.466 0 4.91-.088 7.345.029a4.215 4.215 0 0 1 3.862 2.858 13.84 13.84 0 0 1 .065 10.1c-.443 1.154-1.6 2.035-2.614 3.269 1.331 4.146 2.783 8.672 4.083 13.26m-5.689-27.289h-4.647v11.834c2.5-.318 5.381.994 6.716-2.257 1.367-3.329.507-7.769-2.069-9.575z" transform="translate(-500.114 -212.541)" style="fill:#10add9"/>
        <path data-name="Path 10" d="M800.165 432.71v7.334h-2.342v-29.52c2.375 0 4.672-.09 6.958.024a4.535 4.535 0 0 1 4.664 4.093 28.992 28.992 0 0 1 .016 7.92c-.226 1.47-1.631 2.758-2.836 4.648l4.239 12.755c-1.87.688-2.731.1-3.206-1.637-.8-2.912-1.789-5.771-2.716-8.647-1.034-3.213-1.041-3.21-4.776-2.6v5.631m.023-19.517v11.459a14.982 14.982 0 0 0 3.366-.052c1.083-.271 2.57-.685 3-1.5a9.1 9.1 0 0 0 .007-8.911c-1.357-2.403-3.976-1.427-6.374-.996z" transform="translate(-527.116 -266)" style="fill:#10add9"/>
        <path data-name="Path 11" d="M835.025 434.616c-.039-6.431-.225-12.693 0-18.941.146-4.136 2.935-6.315 6.845-5.98 2.823.242 5.17 1.984 5.273 4.839a274.87 274.87 0 0 1-.01 20.624c-.117 2.984-2.673 4.747-5.718 4.844-3.376.107-5.264-1.44-6.385-5.386m8.587-21.875c-3.212-1.84-5.889-.647-6.087 3.028-.291 5.407-.264 10.835-.263 16.253a6.851 6.851 0 0 0 .776 3.648 5.5 5.5 0 0 0 3.078 2.016 2.762 2.762 0 0 0 3.289-2.009 7.7 7.7 0 0 0 .588-2.447c.055-5.563.1-11.129-.015-16.69-.03-1.194-.742-2.372-1.371-3.799z" transform="translate(-548.513 -265.521)" style="fill:#10add9"/>
        <path data-name="Path 12" d="M883.052 435.921a24.868 24.868 0 0 0 .354-3.077c.026-7.385.014-14.77.014-22.285h2.492v7.679c0 5.141.032 10.282-.012 15.423-.033 3.88-1.86 6.259-5.041 6.739-4.293.649-7.234-1.929-7.281-6.565-.069-6.69-.02-13.38-.021-20.071v-3.232h2.437v6.141c0 5.563-.036 11.127.033 16.69a7.043 7.043 0 0 0 .712 3.233c1.369 2.462 4.474 2.159 6.313-.675z" transform="translate(-570.795 -266.023)" style="fill:#10add9"/>
        <path data-name="Path 13" d="M761.532 431.266a30.92 30.92 0 0 0 .546 3.948 3.134 3.134 0 0 0 3.2 2.544c1.767.035 3.207-.74 3.438-2.465.4-2.97.422-5.989.613-9.144l-3.826-.238v-1.852h5.9a105.988 105.988 0 0 1-.093 11.227c-.34 3.182-3.017 4.862-6.25 4.7a5.554 5.554 0 0 1-5.622-5.242c-.346-3.422-.432-6.88-.447-10.323a78.542 78.542 0 0 1 .392-9.058c.455-4.083 3-6.048 6.9-5.664 3.388.335 5.365 2.934 5.222 6.969h-2.163a24.839 24.839 0 0 0-.625-2.558 3.109 3.109 0 0 0-3.216-2.229 3.009 3.009 0 0 0-3.244 2.159 16.615 16.615 0 0 0-.687 4.134c-.091 4.299-.039 8.597-.038 13.092z" transform="translate(-504.714 -265.518)" style="fill:#10add9"/>
        <path data-name="Path 14" d="M832.72 331.386c1.169 5.39 2.313 10.6 3.493 15.976h-2.618c-.426-2.075-.947-4.242-1.29-6.436-.191-1.226-.692-1.593-1.924-1.609-5.222-.067-5.221-.109-6.29 4.968-.217 1.028-.447 2.053-.683 3.137h-2.631l6.584-29.559h2.369c.985 4.435 1.976 8.89 2.991 13.524M827.31 328l-1.713 8.95h5.879c-.912-4.456-1.8-8.78-2.681-13.1l-.558.023c-.28 1.256-.56 2.517-.927 4.127z" transform="translate(-540.357 -212.566)" style="fill:#10add9"/>
        <path data-name="Path 15" d="M921.359 426.189c-2.222.366-4.292.669-6.591 1.006v12.7h-2.488v-29.436c7.953-.7 9.988-.036 11.348 3.013 1.905 4.273.86 10.373-2.268 12.718m-1.13-13.082-5.444-.8v12.269a14.35 14.35 0 0 0 3.584-.066c1.046-.284 2.51-.914 2.807-1.743 1.13-3.168 1.46-6.443-.948-9.661z" transform="translate(-593.142 -265.834)" style="fill:#10add9"/>
        <path data-name="Path 16" d="M789.169 320.936v-3.075h10.313v2.124h-7.706v11.454h6.6v2.188h-6.585V345.2h7.739v2.195h-10.361z" transform="translate(-522.124 -212.565)" style="fill:#10add9"/>
        <path data-name="Path 17" d="M932.43 326.473c.644-2.4 1.355-4.617 1.832-6.88.382-1.809 1.227-2.544 3.336-1.883-2.9 9.513-6.845 18.9-4.79 29.422l-3.188.172c1.908-10.471-1.811-19.892-4.866-29.416 2.564-.718 2.567-.719 3.174 1.465 1 3.583 1.988 7.167 3.16 11.391.55-1.725.929-2.913 1.342-4.271z" transform="translate(-600.337 -212.334)" style="fill:#10add9"/>
        <path data-name="Path 18" d="M894.052 331.02v-11h-4.9v-2.192h12.181l.135 2.089h-4.887v27.461l-2.53.125z" transform="translate(-579.802 -212.549)" style="fill:#10add9"/>
        <path data-name="Path 19" d="M873.247 345.062c.683.024 1.17.047 1.767.076l.093 2.025h-10.226v-29.514l2.288-.124v27.537z" transform="translate(-565.8 -212.371)" style="fill:#10add9"/>
    </g>
</svg>
