<svg xmlns="http://www.w3.org/2000/svg" width="184.788" height="95.654" viewBox="0 0 184.788 95.654">
    <g data-name="Group 35">
        <path data-name="Path 2" d="M204.63 122.752c-4.156 3.086-8.225 6.164-12.367 9.14-5.164 3.711-10.55 7.132-15.545 11.056a26.884 26.884 0 0 0-10.118 16.217c-.23 1.161-.366 2.34-.564 3.632h51.994v2.077h-59.962c.169-2.021.244-4.058.523-6.066 1.311-9.446 6.054-16.992 13.293-22.953 5.494-4.523 11.258-8.718 16.9-13.065a46.476 46.476 0 0 0 8.58-8.316 27.239 27.239 0 0 0 5.936-16.322 40.244 40.244 0 0 0-2.908-16.972c-2.414-5.688-6.709-8.726-12.779-9.312a27.48 27.48 0 0 0-22.4 7.692c-.235.222-.46.457-.677.7-.192.212-.368.439-.642.769l-1.815-1.407a26.948 26.948 0 0 1 7.493-5.971c11.98-6.144 23.853-5.719 35.283 1.281 6.308 3.864 9.669 9.919 10.6 17.23a35.182 35.182 0 0 1-1.891 17.821 35.809 35.809 0 0 1-8.934 12.769z" transform="translate(-158.068 -69.269)" style="fill:#fff"/>
        <path data-name="Path 3" d="M484.045 127.451c6.88 1.588 11.961-1.417 16.277-6.211a46.879 46.879 0 0 0 3.182-4.6 1.211 1.211 0 0 1 .771-.535c4.494-.033 8.988-.023 13.693-.023-.513 2.266-.889 4.452-1.5 6.568-4.536 15.58-13.658 27.635-27.816 35.7a47.479 47.479 0 0 1-22.6 6.314c-.18 0-.36-.006-.539-.016-.029 0-.056-.041-.137-.1v-1.936c13.222-1.3 24.583-6.118 32.441-17.433 5.579-8.033 7.727-18.668 7.445-26.484-.761 1-1.43 1.9-2.127 2.788-3.583 4.546-8.086 7.7-13.887 8.542-10.021 1.449-19.471-2.567-24.6-12.444-2.543-4.892-3.415-10.2-3.6-15.625a39.107 39.107 0 0 1 2.973-17.494c4.153-9.338 11.383-14.317 21.5-15.255a36.425 36.425 0 0 1 16.344 1.951A21.236 21.236 0 0 1 513.29 81c.1.176.161.371.278.646h-10.331c-.426-1.044-.817-2.121-1.3-3.157a11.69 11.69 0 0 0-9.259-7.066 18.862 18.862 0 0 0-9.258.712c-4.294 1.48-6.428 4.846-7.724 8.918a54.543 54.543 0 0 0-2.376 15.075 83.573 83.573 0 0 0 1.271 19.768c.992 4.7 3.184 8.519 7.572 10.81a19.573 19.573 0 0 0 1.882.745z" transform="translate(-395.581 -69.017)" style="fill:#fff"/>
        <path data-name="Path 4" d="M567.844 153c2.166 5.1 4.3 10.13 6.526 15.389.241-.5.409-.824.548-1.155q3.389-8.048 6.785-16.093a5.237 5.237 0 0 1 .794-1.04 4.714 4.714 0 0 1 .821 1.008c2.278 5.319 4.526 10.65 6.783 15.977.152.357.322.706.56 1.222.2-.39.36-.642.474-.912q3.478-8.186 6.945-16.377c.246-.582.453-1.192 1.4-.8l-10.688 25.2-.44.013-7.942-18.632c-.226.486-.378.788-.51 1.1q-3.517 8.287-7.041 16.571a4.263 4.263 0 0 1-.667.86 5.885 5.885 0 0 1-.553-.859q-4.91-11.561-9.8-23.13c-.149-.352-.27-.716-.469-1.25 1.695 0 3.227-.03 4.755.029.263.01.606.355.748.63.363.696.627 1.449.971 2.249z" transform="translate(-474.272 -132.573)" style="fill:#10add9"/>
        <path data-name="Path 5" d="m231.838 147.861 5.448-5.459v26.115L224.169 155.4z" transform="translate(-209.893 -126.554)" style="fill:#10add9"/>
        <path data-name="Path 6" d="M941.76 115.177v-1.893h4.9v7.948h6.028a3.087 3.087 0 0 1 .857.019 2.634 2.634 0 0 1 .672.454c-.225.161-.447.456-.676.462-1.691.04-3.383.023-5.074.024h-1.674c-.038.357-.092.633-.092.91q-.008 9.556 0 19.111a4.441 4.441 0 0 0 .076.965 1.844 1.844 0 0 0 2.5 1.518c.588-.157 1.143-.454 1.736-.575a1.166 1.166 0 0 1 .874.4 7.663 7.663 0 0 1-8.237.159c-1.542-.88-1.868-2.467-1.87-4.119q-.01-8.476-.005-16.951v-1.386a13.631 13.631 0 0 1-2.141-.025c-.631-.106-1.8.507-1.8-.443.007-1.052 1.2-.351 1.84-.482a11.226 11.226 0 0 1 2.086-.027z" transform="translate(-769.43 -103.724)" style="fill:#10add9"/>
        <path data-name="Path 7" d="M753.217 144.351c5.194 1.3 8.548 5.544 8.186 10.38h-15.93c0 1.5-.073 2.9.018 4.277a33.545 33.545 0 0 0 .6 5.449c.9 3.833 3.433 5.291 7.279 4.417a10.449 10.449 0 0 0 6.246-4.307c.315-.435.59-.9.906-1.385.752.114.7.484.411 1.035a10.552 10.552 0 0 1-15.77 3.617c-7.054-5.362-6.717-17.116.653-21.955a9.872 9.872 0 0 1 7.4-1.529m-6.132 2.851a14.7 14.7 0 0 0-1.569 6.585h11c-.069-2.368-.228-4.68-1.438-6.687a4.154 4.154 0 0 0-2.3-1.757 5.035 5.035 0 0 0-5.692 1.858z" transform="translate(-614.384 -127.948)" style="fill:#10add9"/>
        <path data-name="Path 8" d="M863.985 144.319a9.12 9.12 0 0 1 4.986 3.156c-.425.819-.781.441-1.209.018a7.828 7.828 0 0 0-7.937-2.088 4.226 4.226 0 0 0-3.284 2.826c-.65 2.159.362 3.961 2.66 4.664 1.681.515 3.437.8 5.089 1.388a16.17 16.17 0 0 1 4.225 2.021c2.988 2.206 2.475 7.8.338 10.305a9.81 9.81 0 0 1-14.513.165c-.375-.426-.91-.883.121-1.312a8.858 8.858 0 0 0 11.627 2.218 4.623 4.623 0 0 0 2.039-4.873 4.146 4.146 0 0 0-3.265-3.357c-2.056-.642-4.157-1.15-6.189-1.857-3.257-1.133-4.62-2.987-4.6-5.991a6.95 6.95 0 0 1 4.737-6.871 9.059 9.059 0 0 1 5.175-.412z" transform="translate(-703.594 -127.894)" style="fill:#10add9"/>
        <path data-name="Path 9" d="M757.516 332.9c-.9.224-1.3-.1-1.522-.922-.392-1.453-.891-2.876-1.35-4.31-.529-1.654-.53-1.653-2.417-1.474v6.7l-1.214.066v-15.125c1.259 0 2.506-.045 3.749.015a2.151 2.151 0 0 1 1.971 1.459 7.065 7.065 0 0 1 .033 5.156 7.476 7.476 0 0 1-1.334 1.668c.679 2.116 1.42 4.426 2.084 6.768m-2.9-13.928h-2.376v6.04c1.279-.162 2.746.507 3.428-1.152.698-1.7.258-3.967-1.056-4.888z" transform="translate(-622.956 -264.086)" style="fill:#10add9"/>
        <path data-name="Path 10" d="M799.018 421.832v3.743h-1.2v-15.066c1.212 0 2.385-.046 3.551.012a2.314 2.314 0 0 1 2.381 2.089 14.791 14.791 0 0 1 .008 4.042c-.115.75-.832 1.408-1.448 2.372l2.163 6.51c-.954.351-1.394.051-1.636-.835-.407-1.486-.914-2.945-1.386-4.413-.528-1.64-.531-1.639-2.438-1.327v2.874m.012-9.961v5.849a7.644 7.644 0 0 0 1.718-.027c.553-.138 1.312-.349 1.531-.766a4.645 4.645 0 0 0 0-4.548c-.683-1.227-2.02-.729-3.244-.509z" transform="translate(-659.657 -336.745)" style="fill:#10add9"/>
        <path data-name="Path 11" d="M834.971 422.4c-.02-3.283-.115-6.479 0-9.667a2.964 2.964 0 0 1 3.493-3.052 2.674 2.674 0 0 1 2.691 2.47c.126 3.505.133 7.022 0 10.526a2.723 2.723 0 0 1-2.919 2.472c-1.723.055-2.687-.735-3.259-2.749m4.383-11.165c-1.639-.939-3.006-.33-3.107 1.545-.148 2.76-.135 5.53-.134 8.3a3.5 3.5 0 0 0 .4 1.862 2.806 2.806 0 0 0 1.571 1.029 1.409 1.409 0 0 0 1.679-1.025 3.934 3.934 0 0 0 .3-1.249c.028-2.839.053-5.68-.008-8.518a5.692 5.692 0 0 0-.707-1.946z" transform="translate(-688.738 -336.094)" style="fill:#10add9"/>
        <path data-name="Path 12" d="M878.395 423.49a12.7 12.7 0 0 0 .181-1.571c.013-3.769.007-7.538.007-11.374h1.272v3.919c0 2.624.016 5.248-.006 7.872-.017 1.98-.949 3.194-2.573 3.44-2.191.331-3.692-.985-3.716-3.351-.035-3.414-.01-6.829-.011-10.244v-1.65h1.244v3.134c0 2.84-.018 5.679.017 8.518a3.6 3.6 0 0 0 .363 1.65c.699 1.258 2.283 1.104 3.222-.343z" transform="translate(-719.022 -336.777)" style="fill:#10add9"/>
        <path data-name="Path 13" d="M760.286 420.685a15.789 15.789 0 0 0 .278 2.015 1.6 1.6 0 0 0 1.636 1.3 1.531 1.531 0 0 0 1.755-1.258c.2-1.516.215-3.057.313-4.667l-1.953-.121v-.945h3.011a54.121 54.121 0 0 1-.047 5.73 2.781 2.781 0 0 1-3.19 2.4 2.835 2.835 0 0 1-2.869-2.675c-.177-1.747-.22-3.512-.228-5.269a40.092 40.092 0 0 1 .2-4.623 2.944 2.944 0 0 1 3.521-2.891c1.729.171 2.738 1.5 2.665 3.557h-1.1a12.7 12.7 0 0 0-.319-1.306 1.587 1.587 0 0 0-1.641-1.138 1.536 1.536 0 0 0-1.656 1.1 8.483 8.483 0 0 0-.351 2.11c-.051 2.196-.025 4.387-.025 6.681z" transform="translate(-629.209 -336.089)" style="fill:#10add9"/>
        <path data-name="Path 14" d="M826.872 324.764c.6 2.751 1.181 5.411 1.783 8.154h-1.336c-.217-1.059-.484-2.165-.658-3.285-.1-.626-.353-.813-.982-.821-2.665-.034-2.665-.055-3.211 2.536-.111.525-.228 1.048-.349 1.6h-1.343l3.36-15.087h1.209c.5 2.263 1.008 4.537 1.526 6.9m-2.761-1.728-.874 4.568h3l-1.368-6.688-.285.012c-.142.646-.283 1.29-.472 2.111z" transform="translate(-677.653 -264.12)" style="fill:#10add9"/>
        <path data-name="Path 15" d="M916.914 418.362c-1.134.187-2.191.341-3.364.513v6.479h-1.27v-15.021c4.059-.359 5.1-.018 5.792 1.538.972 2.181.439 5.294-1.158 6.491m-.577-6.677-2.779-.409v6.262a7.325 7.325 0 0 0 1.829-.034c.534-.145 1.281-.466 1.432-.89a4.888 4.888 0 0 0-.482-4.929z" transform="translate(-749.395 -336.518)" style="fill:#10add9"/>
        <path data-name="Path 16" d="M789.169 319.43v-1.569h5.264v1.084H790.5v5.846h3.369v1.117h-3.361v5.9h3.95v1.12h-5.289z" transform="translate(-652.872 -264.119)" style="fill:#10add9"/>
        <path data-name="Path 17" d="M928.671 322.06c.328-1.227.691-2.357.935-3.511.195-.923.626-1.3 1.7-.961-1.481 4.856-3.493 9.645-2.445 15.017l-1.627.088c.974-5.344-.924-10.153-2.484-15.014 1.309-.366 1.31-.367 1.62.748.509 1.829 1.015 3.658 1.613 5.814.284-.881.478-1.488.688-2.181z" transform="translate(-759.174 -263.805)" style="fill:#10add9"/>
        <path data-name="Path 18" d="M891.654 324.563v-5.612h-2.5v-1.119h6.217l.069 1.066h-2.495v14.016l-1.291.064z" transform="translate(-731.264 -264.097)" style="fill:#10add9"/>
        <path data-name="Path 19" d="M869.151 331.579c.348.012.6.024.9.039l.047 1.033h-5.219v-15.063l1.168-.063v14.054z" transform="translate(-712.233 -263.856)" style="fill:#10add9"/>
    </g>
</svg>
