<svg xmlns="http://www.w3.org/2000/svg" width="105.4" height="18.002" viewBox="0 0 105.4 18.002">
    <g data-name="Group 36">
        <path data-name="Icon ionic-md-star" d="m13.267 18.972 5.852 3.528-1.548-6.66 5.166-4.478-6.81-.585-2.66-6.277-2.66 6.279-6.81.585 5.166 4.478L7.414 22.5z" transform="translate(-3.797 -4.5)" style="fill:#10add9"/>
        <path data-name="Icon ionic-md-star" d="m13.267 18.972 5.852 3.528-1.548-6.66 5.166-4.478-6.81-.585-2.66-6.277-2.66 6.279-6.81.585 5.166 4.478L7.414 22.5z" transform="translate(17.818 -4.5)" style="fill:#10add9"/>
        <path data-name="Icon ionic-md-star" d="m13.267 18.972 5.852 3.528-1.548-6.66 5.166-4.478-6.81-.585-2.66-6.277-2.66 6.279-6.81.585 5.166 4.478L7.414 22.5z" transform="translate(39.433 -4.5)" style="fill:#10add9"/>
        <path data-name="Icon ionic-md-star" d="m13.267 18.972 5.852 3.528-1.548-6.66 5.166-4.478-6.81-.585-2.66-6.277-2.66 6.279-6.81.585 5.166 4.478L7.414 22.5z" transform="translate(61.048 -4.5)" style="fill:#10add9"/>
        <path data-name="Icon ionic-md-star" d="m13.267 18.972 5.852 3.528-1.548-6.66 5.166-4.478-6.81-.585-2.66-6.277-2.66 6.279-6.81.585 5.166 4.478L7.414 22.5z" transform="translate(82.663 -4.5)" style="fill:#10add9"/>
    </g>
</svg>
