<svg xmlns="http://www.w3.org/2000/svg" width="180" height="140" viewBox="0 0 188.487 143.279">
    <g data-name="Icon open-double-quote-sans-left" style="fill:#fff">
        <path d="M116.054 141.072V-.5h70.933v70.64l-.147.146-69.932 69.933-.854.853zm-116.554 0V-.5h70.932v70.64l-.146.146L.354 140.219l-.854.853z" style="stroke:none" transform="translate(1 1)"/>
        <path d="M0 0v139.865l69.932-69.933V0H0m116.554 0v139.865l69.933-69.933V0h-69.933M-1-1h71.932v71.347l-.292.293L-1 142.28V-1zm116.554 0h71.933v71.347l-.293.293-71.64 71.64V-1z" fill= "#000" stroke="none" transform="translate(1 1)"/>
    </g>
</svg>
