<svg xmlns="http://www.w3.org/2000/svg" width="28.56" height="20.081" viewBox="0 0 28.56 20.081">
    <g data-name="Group 1935">
        <g data-name="Group 1934">
            <path data-name="Path 30706" d="m43.269 277.251-2.392 2.4a2.648 2.648 0 0 1-3.668 0l-2.392-2.4-8.591 8.619a2.486 2.486 0 0 0 1.047.236h23.54a2.483 2.483 0 0 0 1.047-.236z" transform="translate(-24.763 -266.025)" fill="#fff"/>
        </g>
    </g>
    <g data-name="Group 1937">
        <g data-name="Group 1936">
            <path data-name="Path 30707" d="M50.814 76H27.275a2.485 2.485 0 0 0-1.047.236l9.18 9.211 2.992 2.997a1 1 0 0 0 1.3 0l2.984-2.994 9.18-9.211a2.483 2.483 0 0 0-1.05-.239z" transform="translate(-24.765 -76)" fill="#fff"/>
        </g>
    </g>
    <g data-name="Group 1939">
        <g data-name="Group 1938">
            <path data-name="Path 30708" d="M.267 101.212a2.479 2.479 0 0 0-.267 1.1v15.061a2.478 2.478 0 0 0 .267 1.1l8.606-8.634z" transform="translate(0 -99.806)" fill="#fff"/>
        </g>
    </g>
    <g data-name="Group 1941">
        <g data-name="Group 1940">
            <path data-name="Path 30709" d="m361.539 101.21-8.606 8.635 8.606 8.634a2.479 2.479 0 0 0 .267-1.1v-15.065a2.479 2.479 0 0 0-.267-1.104z" transform="translate(-333.246 -99.804)" fill="#fff"/>
        </g>
    </g>
</svg>
