<svg xmlns="http://www.w3.org/2000/svg" width="147.643" height="112.646" viewBox="0 0 147.643 112.646">
    <g data-name="Icon open-double-quote-sans-left" style="fill:#fff">
        <path d="M90.527 110.44V-.5h55.616v55.323l-.146.147-54.616 54.616-.854.854zm-91.027 0V-.5h55.616v55.323l-.146.147L.354 109.586l-.854.854z" style="stroke:none" transform="translate(1 1)"/>
        <path d="M0 0v109.232l54.616-54.616V0H0m91.027 0v109.232l54.616-54.616V0H91.027M-1-1h56.616v56.03l-.293.293L-1 111.647V-1zm91.027 0h56.616v56.03l-.293.293-56.323 56.324V-1z" style="fill:#000;stroke:none" transform="translate(1 1)"/>
    </g>
</svg>
