<svg xmlns="http://www.w3.org/2000/svg" xmlns:xlink="http://www.w3.org/1999/xlink" width="110" height="73.02" viewBox="0 0 110 73.02">
  <defs>
    <clipPath id="clip-path">
      <rect id="Rectangle_28" data-name="Rectangle 28" width="110" height="73.02" transform="translate(25 43)" fill="#fff"/>
    </clipPath>
  </defs>
  <g id="picto_vistario" transform="translate(-25 -43)" clip-path="url(#clip-path)">
    <path id="Path_33" data-name="Path 33" d="M91.4,110.29l-.15.05a35.773,35.773,0,0,1-22.5-.03,38.353,38.353,0,0,0-23.92.03l-11.36,3.77.63,1.9,11.36-3.77a36.3,36.3,0,0,1,22.67-.03,37.753,37.753,0,0,0,23.75.02l.15-.05a36.374,36.374,0,0,1,22.67.08l11.2,3.75.63-1.9-11.2-3.75a38.313,38.313,0,0,0-23.93-.08Z"/>
    <path id="Path_34" data-name="Path 34" d="M135,61.81v-2c-10.68,0-19.55-7.14-20.62-16.6h-.04l-.01-.21h-6.37l-.04.57c-5.11,5.69-15.99,9.35-27.87,9.35s-22.74-3.66-27.86-9.34L52.15,43H45.78v.22l-.17-.02C44.54,52.67,35.68,59.81,25,59.81v2c8.85,0,16.56-4.52,20.3-11.26L43.58,77.54H28.75v2H43.46L42.2,99.39l-8.73,2.9.63,1.9,11.36-3.77a36.3,36.3,0,0,1,22.67-.03,37.823,37.823,0,0,0,23.75.03l.15-.05a36.374,36.374,0,0,1,22.67.08l11.2,3.75.63-1.9-8.61-2.88-1.27-19.87h13.96v-2H116.52l-1.7-26.75c3.8,6.6,11.43,11.02,20.18,11.02ZM107.73,46.55l-1.96,30.99h-2.36V49.53a25.133,25.133,0,0,0,4.32-2.99ZM58.86,77.54V50.64a42.237,42.237,0,0,0,5.43,2.05V77.54Zm7.43-24.29a53.569,53.569,0,0,0,5.42,1.07V77.54H66.29V53.25Zm7.42,1.33c1.77.19,3.59.31,5.43.34V77.55H73.71V54.58Zm7.43.33c1.84-.03,3.65-.15,5.43-.35V77.54H81.14Zm7.43-.61a50.437,50.437,0,0,0,5.42-1.1V77.54H88.57V54.3Zm7.42-1.66a40.828,40.828,0,0,0,5.43-2.07V77.54H95.99V52.64ZM56.86,49.63V77.55H54.34L52.38,46.56A25.559,25.559,0,0,0,56.86,49.63Zm-9.2-4.62h2.62l2.05,32.53H45.59L47.66,45ZM44.83,98.52l-.59.2,1.22-19.17h7l1.09,17.19a38.076,38.076,0,0,0-8.71,1.78Zm46.58-.06-.15.05a35.773,35.773,0,0,1-22.5-.03,38.227,38.227,0,0,0-13.21-1.87L54.47,79.54h51.19l-1.08,17.08A38.458,38.458,0,0,0,91.41,98.46Zm24.47.27-.54-.18a38.123,38.123,0,0,0-8.76-1.81l1.09-17.19h7l1.22,19.19Zm-8.09-21.19,2.05-32.53h2.62l2.07,32.53Z"/>
  </g>
</svg>
