<svg xmlns="http://www.w3.org/2000/svg" xmlns:xlink="http://www.w3.org/1999/xlink" width="100" height="100" viewBox="0 0 100 100">
  <defs>
    <clipPath id="clip-path">
      <rect id="Rectangle_27" data-name="Rectangle 27" width="100" height="100" transform="translate(30 30)" fill="#fff"/>
    </clipPath>
  </defs>
  <g id="picto_sol" transform="translate(-30 -30)" clip-path="url(#clip-path)">
    <path id="Path_24" data-name="Path 24" d="M80,105.94A25.94,25.94,0,1,1,105.96,80,25.984,25.984,0,0,1,80,105.94Zm0-49.88A23.94,23.94,0,1,0,103.96,80,23.979,23.979,0,0,0,80,56.06Z"/>
    <path id="Path_25" data-name="Path 25" d="M81,30H79V46.81h2Z"/>
    <path id="Path_26" data-name="Path 26" d="M81,113.19H79V130h2Z"/>
    <path id="Path_27" data-name="Path 27" d="M114.65,43.934,102.764,55.821l1.414,1.414,11.887-11.886Z"/>
    <path id="Path_28" data-name="Path 28" d="M55.823,102.765,43.937,114.652l1.414,1.414,11.886-11.887Z"/>
    <path id="Path_29" data-name="Path 29" d="M104.18,102.763l-1.414,1.414,11.886,11.887,1.415-1.414Z"/>
    <path id="Path_30" data-name="Path 30" d="M45.349,43.936,43.935,45.35,55.821,57.237l1.414-1.414Z"/>
    <path id="Path_31" data-name="Path 31" d="M130,79H113.19v2H130Z"/>
    <path id="Path_32" data-name="Path 32" d="M46.81,79H30v2H46.81Z"/>
  </g>
</svg>
